<mxfile host="65bd71144e">
    <diagram id="sV0PdzSoE6YO78EN6hSr" name="workflows_mcd">
        <mxGraphModel dx="2013" dy="1161" grid="1" gridSize="10" guides="1" tooltips="1" connect="1" arrows="1" fold="1" page="1" pageScale="1" pageWidth="1169" pageHeight="827" background="#ffffff" math="0" shadow="0">
            <root>
                <mxCell id="M37x-w40fnPvyNNA2sr3-0"/>
                <mxCell id="M37x-w40fnPvyNNA2sr3-1" parent="M37x-w40fnPvyNNA2sr3-0"/>
                <mxCell id="_rT02i8OdZy9hyLazdgX-158" style="edgeStyle=elbowEdgeStyle;elbow=vertical;html=1;exitX=1;exitY=0.5;exitDx=0;exitDy=0;entryX=1.004;entryY=0.2;entryDx=0;entryDy=0;fontSize=14;fontColor=#000000;strokeColor=#000000;entryPerimeter=0;" parent="M37x-w40fnPvyNNA2sr3-1" source="_rT02i8OdZy9hyLazdgX-0" target="_rT02i8OdZy9hyLazdgX-140" edge="1">
                    <mxGeometry relative="1" as="geometry">
                        <Array as="points">
                            <mxPoint x="480" y="-580"/>
                            <mxPoint x="540" y="-775"/>
                            <mxPoint x="-980" y="-810"/>
                            <mxPoint x="-1060" y="-700"/>
                            <mxPoint x="290" y="-810"/>
                        </Array>
                        <mxPoint x="535" y="-540" as="targetPoint"/>
                    </mxGeometry>
                </mxCell>
                <object label="t_type_produits" name="" id="_rT02i8OdZy9hyLazdgX-13">
                    <mxCell style="shape=table;startSize=30;container=1;collapsible=0;childLayout=tableLayout;fontStyle=1;align=center;pointerEvents=1;rounded=0;shadow=0;sketch=0;fontSize=14;fontColor=#ffffff;strokeColor=#005700;strokeWidth=1;fillColor=#008a00;" parent="M37x-w40fnPvyNNA2sr3-1" vertex="1">
                        <mxGeometry x="-1000" y="-610" width="120" height="50" as="geometry"/>
                    </mxCell>
                </object>
                <mxCell id="_rT02i8OdZy9hyLazdgX-14" value="" style="shape=partialRectangle;html=1;whiteSpace=wrap;collapsible=0;dropTarget=0;pointerEvents=0;fillColor=none;top=0;left=0;bottom=0;right=0;points=[[0,0.5],[1,0.5]];portConstraint=eastwest;rounded=0;shadow=0;sketch=0;fontSize=14;fontColor=#FFFFFF;strokeColor=#000000;strokeWidth=1;" parent="_rT02i8OdZy9hyLazdgX-13" vertex="1">
                    <mxGeometry y="30" width="120" height="20" as="geometry"/>
                </mxCell>
                <mxCell id="_rT02i8OdZy9hyLazdgX-15" value="&lt;b&gt;id&lt;/b&gt;" style="shape=partialRectangle;html=1;whiteSpace=wrap;connectable=0;fillColor=none;top=0;left=0;bottom=0;right=0;overflow=hidden;pointerEvents=1;rounded=0;shadow=0;sketch=0;fontSize=14;fontColor=#000000;strokeColor=#000000;strokeWidth=1;align=left;" parent="_rT02i8OdZy9hyLazdgX-14" vertex="1">
                    <mxGeometry width="120" height="20" as="geometry">
                        <mxRectangle width="120" height="20" as="alternateBounds"/>
                    </mxGeometry>
                </mxCell>
                <object label="t_type_clients" name="" id="_rT02i8OdZy9hyLazdgX-16">
                    <mxCell style="shape=table;startSize=20;container=1;collapsible=0;childLayout=tableLayout;fontStyle=1;align=center;pointerEvents=1;rounded=0;shadow=0;sketch=0;fontSize=14;fontColor=#ffffff;strokeColor=#006EAF;strokeWidth=1;fillColor=#1ba1e2;" parent="M37x-w40fnPvyNNA2sr3-1" vertex="1">
                        <mxGeometry x="-500" y="-610" width="120" height="50" as="geometry"/>
                    </mxCell>
                </object>
                <mxCell id="_rT02i8OdZy9hyLazdgX-17" value="" style="shape=partialRectangle;html=1;whiteSpace=wrap;collapsible=0;dropTarget=0;pointerEvents=0;fillColor=none;top=0;left=0;bottom=0;right=0;points=[[0,0.5],[1,0.5]];portConstraint=eastwest;rounded=0;shadow=0;sketch=0;fontSize=14;fontColor=#FFFFFF;strokeColor=#000000;strokeWidth=1;" parent="_rT02i8OdZy9hyLazdgX-16" vertex="1">
                    <mxGeometry y="20" width="120" height="30" as="geometry"/>
                </mxCell>
                <mxCell id="_rT02i8OdZy9hyLazdgX-18" value="&lt;b&gt;id&lt;/b&gt;" style="shape=partialRectangle;html=1;whiteSpace=wrap;connectable=0;fillColor=none;top=0;left=0;bottom=0;right=0;overflow=hidden;pointerEvents=1;rounded=0;shadow=0;sketch=0;fontSize=14;fontColor=#000000;strokeColor=#000000;strokeWidth=1;align=left;" parent="_rT02i8OdZy9hyLazdgX-17" vertex="1">
                    <mxGeometry width="120" height="30" as="geometry">
                        <mxRectangle width="120" height="30" as="alternateBounds"/>
                    </mxGeometry>
                </mxCell>
                <mxCell id="_rT02i8OdZy9hyLazdgX-77" style="edgeStyle=elbowEdgeStyle;elbow=vertical;html=1;exitX=0.5;exitY=0;exitDx=0;exitDy=0;fontSize=14;fontColor=#000000;strokeColor=#000000;entryX=0.497;entryY=0.97;entryDx=0;entryDy=0;entryPerimeter=0;" parent="M37x-w40fnPvyNNA2sr3-1" source="_rT02i8OdZy9hyLazdgX-22" target="_rT02i8OdZy9hyLazdgX-35" edge="1">
                    <mxGeometry relative="1" as="geometry">
                        <mxPoint x="-960" y="-320" as="targetPoint"/>
                        <Array as="points">
                            <mxPoint x="-950" y="-300"/>
                        </Array>
                    </mxGeometry>
                </mxCell>
                <object label="t_type_champs" name="" id="_rT02i8OdZy9hyLazdgX-22">
                    <mxCell style="shape=table;startSize=30;container=1;collapsible=0;childLayout=tableLayout;fontStyle=1;align=center;pointerEvents=1;rounded=0;shadow=0;sketch=0;fontSize=14;fontColor=#000000;strokeColor=#B09500;strokeWidth=1;fillColor=#e3c800;" parent="M37x-w40fnPvyNNA2sr3-1" vertex="1">
                        <mxGeometry x="-1010" y="-240" width="120" height="50" as="geometry"/>
                    </mxCell>
                </object>
                <mxCell id="_rT02i8OdZy9hyLazdgX-23" value="" style="shape=partialRectangle;html=1;whiteSpace=wrap;collapsible=0;dropTarget=0;pointerEvents=0;fillColor=none;top=0;left=0;bottom=0;right=0;points=[[0,0.5],[1,0.5]];portConstraint=eastwest;rounded=0;shadow=0;sketch=0;fontSize=14;fontColor=#FFFFFF;strokeColor=#000000;strokeWidth=1;" parent="_rT02i8OdZy9hyLazdgX-22" vertex="1">
                    <mxGeometry y="30" width="120" height="20" as="geometry"/>
                </mxCell>
                <mxCell id="_rT02i8OdZy9hyLazdgX-24" value="&lt;b&gt;id&lt;/b&gt;" style="shape=partialRectangle;html=1;whiteSpace=wrap;connectable=0;fillColor=none;top=0;left=0;bottom=0;right=0;overflow=hidden;pointerEvents=1;rounded=0;shadow=0;sketch=0;fontSize=14;fontColor=#000000;strokeColor=#000000;strokeWidth=1;align=left;" parent="_rT02i8OdZy9hyLazdgX-23" vertex="1">
                    <mxGeometry width="120" height="20" as="geometry">
                        <mxRectangle width="120" height="20" as="alternateBounds"/>
                    </mxGeometry>
                </mxCell>
                <mxCell id="5" style="edgeStyle=none;html=1;exitX=0.5;exitY=0;exitDx=0;exitDy=0;entryX=0.585;entryY=1.05;entryDx=0;entryDy=0;entryPerimeter=0;strokeColor=#000000;" parent="M37x-w40fnPvyNNA2sr3-1" source="_rT02i8OdZy9hyLazdgX-25" target="_rT02i8OdZy9hyLazdgX-29" edge="1">
                    <mxGeometry relative="1" as="geometry">
                        <Array as="points">
                            <mxPoint x="-684" y="-660"/>
                        </Array>
                    </mxGeometry>
                </mxCell>
                <object label="t_produits" name="" id="_rT02i8OdZy9hyLazdgX-25">
                    <mxCell style="shape=table;startSize=30;container=1;collapsible=0;childLayout=tableLayout;fontStyle=1;align=center;pointerEvents=1;rounded=0;shadow=0;sketch=0;fontSize=14;fontColor=#ffffff;strokeColor=#005700;strokeWidth=1;fillColor=#008a00;" parent="M37x-w40fnPvyNNA2sr3-1" vertex="1">
                        <mxGeometry x="-750" y="-610" width="130" height="50" as="geometry"/>
                    </mxCell>
                </object>
                <mxCell id="_rT02i8OdZy9hyLazdgX-26" value="" style="shape=partialRectangle;html=1;whiteSpace=wrap;collapsible=0;dropTarget=0;pointerEvents=0;fillColor=none;top=0;left=0;bottom=0;right=0;points=[[0,0.5],[1,0.5]];portConstraint=eastwest;rounded=0;shadow=0;sketch=0;fontSize=14;fontColor=#FFFFFF;strokeColor=#000000;strokeWidth=1;" parent="_rT02i8OdZy9hyLazdgX-25" vertex="1">
                    <mxGeometry y="30" width="130" height="20" as="geometry"/>
                </mxCell>
                <mxCell id="_rT02i8OdZy9hyLazdgX-27" value="&lt;b&gt;id&lt;/b&gt;" style="shape=partialRectangle;html=1;whiteSpace=wrap;connectable=0;fillColor=none;top=0;left=0;bottom=0;right=0;overflow=hidden;pointerEvents=1;rounded=0;shadow=0;sketch=0;fontSize=14;fontColor=#000000;strokeColor=#000000;strokeWidth=1;align=left;" parent="_rT02i8OdZy9hyLazdgX-26" vertex="1">
                    <mxGeometry width="130" height="20" as="geometry">
                        <mxRectangle width="130" height="20" as="alternateBounds"/>
                    </mxGeometry>
                </mxCell>
                <object label="t_conventions" name="" id="_rT02i8OdZy9hyLazdgX-28">
                    <mxCell style="shape=table;startSize=30;container=1;collapsible=0;childLayout=tableLayout;fontStyle=1;align=center;pointerEvents=1;rounded=0;shadow=0;sketch=0;fontSize=14;fontColor=#ffffff;strokeColor=#6F0000;strokeWidth=1;fillColor=#a20025;" parent="M37x-w40fnPvyNNA2sr3-1" vertex="1">
                        <mxGeometry x="-760" y="-740" width="130" height="50" as="geometry"/>
                    </mxCell>
                </object>
                <mxCell id="_rT02i8OdZy9hyLazdgX-29" value="" style="shape=partialRectangle;html=1;whiteSpace=wrap;collapsible=0;dropTarget=0;pointerEvents=0;fillColor=none;top=0;left=0;bottom=0;right=0;points=[[0,0.5],[1,0.5]];portConstraint=eastwest;rounded=0;shadow=0;sketch=0;fontSize=14;fontColor=#FFFFFF;strokeColor=#000000;strokeWidth=1;" parent="_rT02i8OdZy9hyLazdgX-28" vertex="1">
                    <mxGeometry y="30" width="130" height="20" as="geometry"/>
                </mxCell>
                <mxCell id="_rT02i8OdZy9hyLazdgX-30" value="&lt;b&gt;id&lt;/b&gt;" style="shape=partialRectangle;html=1;whiteSpace=wrap;connectable=0;fillColor=none;top=0;left=0;bottom=0;right=0;overflow=hidden;pointerEvents=1;rounded=0;shadow=0;sketch=0;fontSize=14;fontColor=#000000;strokeColor=#000000;strokeWidth=1;align=left;" parent="_rT02i8OdZy9hyLazdgX-29" vertex="1">
                    <mxGeometry width="130" height="20" as="geometry">
                        <mxRectangle width="130" height="20" as="alternateBounds"/>
                    </mxGeometry>
                </mxCell>
                <object label="t_entreprises" name="" id="_rT02i8OdZy9hyLazdgX-31">
                    <mxCell style="shape=table;startSize=30;container=1;collapsible=0;childLayout=tableLayout;fontStyle=1;align=center;pointerEvents=1;rounded=0;shadow=0;sketch=0;fontSize=14;fontColor=#ffffff;strokeColor=#006EAF;strokeWidth=1;fillColor=#1ba1e2;" parent="M37x-w40fnPvyNNA2sr3-1" vertex="1">
                        <mxGeometry x="-400" y="-740" width="150" height="50" as="geometry"/>
                    </mxCell>
                </object>
                <mxCell id="_rT02i8OdZy9hyLazdgX-32" value="" style="shape=partialRectangle;html=1;whiteSpace=wrap;collapsible=0;dropTarget=0;pointerEvents=0;fillColor=none;top=0;left=0;bottom=0;right=0;points=[[0,0.5],[1,0.5]];portConstraint=eastwest;rounded=0;shadow=0;sketch=0;fontSize=14;fontColor=#FFFFFF;strokeColor=#000000;strokeWidth=1;" parent="_rT02i8OdZy9hyLazdgX-31" vertex="1">
                    <mxGeometry y="30" width="150" height="20" as="geometry"/>
                </mxCell>
                <mxCell id="_rT02i8OdZy9hyLazdgX-33" value="&lt;b&gt;id&lt;/b&gt;" style="shape=partialRectangle;html=1;whiteSpace=wrap;connectable=0;fillColor=none;top=0;left=0;bottom=0;right=0;overflow=hidden;pointerEvents=1;rounded=0;shadow=0;sketch=0;fontSize=14;fontColor=#000000;strokeColor=#000000;strokeWidth=1;align=left;" parent="_rT02i8OdZy9hyLazdgX-32" vertex="1">
                    <mxGeometry width="150" height="20" as="geometry">
                        <mxRectangle width="150" height="20" as="alternateBounds"/>
                    </mxGeometry>
                </mxCell>
                <object label="t_champs" name="" id="_rT02i8OdZy9hyLazdgX-34">
                    <mxCell style="shape=table;startSize=30;container=1;collapsible=0;childLayout=tableLayout;fontStyle=1;align=center;pointerEvents=1;rounded=0;shadow=0;sketch=0;fontSize=14;fontColor=#000000;strokeColor=#B09500;strokeWidth=1;fillColor=#e3c800;" parent="M37x-w40fnPvyNNA2sr3-1" vertex="1">
                        <mxGeometry x="-1010" y="-380" width="120" height="50" as="geometry"/>
                    </mxCell>
                </object>
                <mxCell id="_rT02i8OdZy9hyLazdgX-35" value="" style="shape=partialRectangle;html=1;whiteSpace=wrap;collapsible=0;dropTarget=0;pointerEvents=0;fillColor=none;top=0;left=0;bottom=0;right=0;points=[[0,0.5],[1,0.5]];portConstraint=eastwest;rounded=0;shadow=0;sketch=0;fontSize=14;fontColor=#FFFFFF;strokeColor=#000000;strokeWidth=1;" parent="_rT02i8OdZy9hyLazdgX-34" vertex="1">
                    <mxGeometry y="30" width="120" height="20" as="geometry"/>
                </mxCell>
                <mxCell id="_rT02i8OdZy9hyLazdgX-36" value="&lt;b&gt;id&lt;/b&gt;" style="shape=partialRectangle;html=1;whiteSpace=wrap;connectable=0;fillColor=none;top=0;left=0;bottom=0;right=0;overflow=hidden;pointerEvents=1;rounded=0;shadow=0;sketch=0;fontSize=14;fontColor=#000000;strokeColor=#000000;strokeWidth=1;align=left;" parent="_rT02i8OdZy9hyLazdgX-35" vertex="1">
                    <mxGeometry width="120" height="20" as="geometry">
                        <mxRectangle width="120" height="20" as="alternateBounds"/>
                    </mxGeometry>
                </mxCell>
                <mxCell id="_rT02i8OdZy9hyLazdgX-49" style="edgeStyle=elbowEdgeStyle;elbow=vertical;html=1;exitX=0.5;exitY=0;exitDx=0;exitDy=0;entryX=0.477;entryY=1.09;entryDx=0;entryDy=0;entryPerimeter=0;fontSize=14;fontColor=#000000;strokeColor=#000000;" parent="M37x-w40fnPvyNNA2sr3-1" source="_rT02i8OdZy9hyLazdgX-37" target="_rT02i8OdZy9hyLazdgX-32" edge="1">
                    <mxGeometry relative="1" as="geometry"/>
                </mxCell>
                <mxCell id="_rT02i8OdZy9hyLazdgX-132" style="edgeStyle=elbowEdgeStyle;elbow=vertical;html=1;exitX=0.853;exitY=-0.04;exitDx=0;exitDy=0;entryX=0.425;entryY=1.15;entryDx=0;entryDy=0;entryPerimeter=0;fontSize=14;fontColor=#000000;strokeColor=#000000;exitPerimeter=0;" parent="M37x-w40fnPvyNNA2sr3-1" source="_rT02i8OdZy9hyLazdgX-37" target="_rT02i8OdZy9hyLazdgX-103" edge="1">
                    <mxGeometry relative="1" as="geometry">
                        <Array as="points">
                            <mxPoint x="-140" y="-630"/>
                            <mxPoint x="70" y="-640"/>
                            <mxPoint x="-20" y="-585"/>
                            <mxPoint x="-20" y="-600"/>
                        </Array>
                    </mxGeometry>
                </mxCell>
                <mxCell id="44" style="edgeStyle=none;html=1;exitX=0.68;exitY=-0.008;exitDx=0;exitDy=0;entryX=0.272;entryY=1.02;entryDx=0;entryDy=0;entryPerimeter=0;strokeColor=#000000;exitPerimeter=0;" parent="M37x-w40fnPvyNNA2sr3-1" source="_rT02i8OdZy9hyLazdgX-37" target="42" edge="1">
                    <mxGeometry relative="1" as="geometry"/>
                </mxCell>
                <object label="t_clients" name="" id="_rT02i8OdZy9hyLazdgX-37">
                    <mxCell style="shape=table;startSize=30;container=1;collapsible=0;childLayout=tableLayout;fontStyle=1;align=center;pointerEvents=1;rounded=0;shadow=0;sketch=0;fontSize=14;fontColor=#ffffff;strokeColor=#006EAF;strokeWidth=1;fillColor=#1ba1e2;" parent="M37x-w40fnPvyNNA2sr3-1" vertex="1">
                        <mxGeometry x="-240" y="-610" width="120" height="50" as="geometry"/>
                    </mxCell>
                </object>
                <mxCell id="_rT02i8OdZy9hyLazdgX-38" value="" style="shape=partialRectangle;html=1;whiteSpace=wrap;collapsible=0;dropTarget=0;pointerEvents=0;fillColor=none;top=0;left=0;bottom=0;right=0;points=[[0,0.5],[1,0.5]];portConstraint=eastwest;rounded=0;shadow=0;sketch=0;fontSize=14;fontColor=#FFFFFF;strokeColor=#000000;strokeWidth=1;" parent="_rT02i8OdZy9hyLazdgX-37" vertex="1">
                    <mxGeometry y="30" width="120" height="20" as="geometry"/>
                </mxCell>
                <mxCell id="_rT02i8OdZy9hyLazdgX-39" value="&lt;b&gt;id&lt;/b&gt;" style="shape=partialRectangle;html=1;whiteSpace=wrap;connectable=0;fillColor=none;top=0;left=0;bottom=0;right=0;overflow=hidden;pointerEvents=1;rounded=0;shadow=0;sketch=0;fontSize=14;fontColor=#000000;strokeColor=#000000;strokeWidth=1;align=left;" parent="_rT02i8OdZy9hyLazdgX-38" vertex="1">
                    <mxGeometry width="120" height="20" as="geometry">
                        <mxRectangle width="120" height="20" as="alternateBounds"/>
                    </mxGeometry>
                </mxCell>
                <mxCell id="_rT02i8OdZy9hyLazdgX-43" style="edgeStyle=orthogonalEdgeStyle;html=1;exitX=1;exitY=0.5;exitDx=0;exitDy=0;fontSize=14;fontColor=#000000;strokeColor=#000000;" parent="M37x-w40fnPvyNNA2sr3-1" source="_rT02i8OdZy9hyLazdgX-14" edge="1">
                    <mxGeometry relative="1" as="geometry">
                        <mxPoint x="-750" y="-570" as="targetPoint"/>
                    </mxGeometry>
                </mxCell>
                <mxCell id="_rT02i8OdZy9hyLazdgX-59" style="edgeStyle=elbowEdgeStyle;elbow=vertical;html=1;exitX=0;exitY=0.5;exitDx=0;exitDy=0;fontSize=14;fontColor=#000000;strokeColor=#000000;entryX=1;entryY=0.5;entryDx=0;entryDy=0;" parent="M37x-w40fnPvyNNA2sr3-1" source="_rT02i8OdZy9hyLazdgX-32" target="_rT02i8OdZy9hyLazdgX-29" edge="1">
                    <mxGeometry relative="1" as="geometry">
                        <mxPoint x="-490" y="-700" as="targetPoint"/>
                    </mxGeometry>
                </mxCell>
                <mxCell id="_rT02i8OdZy9hyLazdgX-80" style="edgeStyle=elbowEdgeStyle;elbow=vertical;html=1;exitX=0.46;exitY=1.011;exitDx=0;exitDy=0;fontSize=14;fontColor=#000000;strokeColor=#000000;exitPerimeter=0;entryX=0.5;entryY=0;entryDx=0;entryDy=0;" parent="M37x-w40fnPvyNNA2sr3-1" source="_rT02i8OdZy9hyLazdgX-61" target="_rT02i8OdZy9hyLazdgX-66" edge="1">
                    <mxGeometry relative="1" as="geometry">
                        <mxPoint x="-695" y="-270" as="targetPoint"/>
                    </mxGeometry>
                </mxCell>
                <mxCell id="12" value="z" style="edgeStyle=none;html=1;strokeColor=#000000;entryX=0.012;entryY=0.064;entryDx=0;entryDy=0;entryPerimeter=0;" parent="M37x-w40fnPvyNNA2sr3-1" target="_rT02i8OdZy9hyLazdgX-115" edge="1">
                    <mxGeometry relative="1" as="geometry">
                        <mxPoint x="230" y="-380" as="targetPoint"/>
                        <Array as="points">
                            <mxPoint x="-658" y="-371"/>
                            <mxPoint x="-580" y="-370"/>
                            <mxPoint x="-170" y="-370"/>
                        </Array>
                        <mxPoint x="-658" y="-390" as="sourcePoint"/>
                    </mxGeometry>
                </mxCell>
                <object label="t_formulaires" name="" id="_rT02i8OdZy9hyLazdgX-60">
                    <mxCell style="shape=table;startSize=30;container=1;collapsible=0;childLayout=tableLayout;fontStyle=1;align=center;pointerEvents=1;rounded=0;shadow=0;sketch=0;fontSize=14;fontColor=#000000;strokeColor=#B09500;strokeWidth=1;fillColor=#e3c800;" parent="M37x-w40fnPvyNNA2sr3-1" vertex="1">
                        <mxGeometry x="-750" y="-440" width="120" height="50" as="geometry"/>
                    </mxCell>
                </object>
                <mxCell id="_rT02i8OdZy9hyLazdgX-61" value="" style="shape=partialRectangle;html=1;whiteSpace=wrap;collapsible=0;dropTarget=0;pointerEvents=0;fillColor=none;top=0;left=0;bottom=0;right=0;points=[[0,0.5],[1,0.5]];portConstraint=eastwest;rounded=0;shadow=0;sketch=0;fontSize=14;fontColor=#FFFFFF;strokeColor=#000000;strokeWidth=1;" parent="_rT02i8OdZy9hyLazdgX-60" vertex="1">
                    <mxGeometry y="30" width="120" height="20" as="geometry"/>
                </mxCell>
                <mxCell id="_rT02i8OdZy9hyLazdgX-62" value="&lt;b&gt;id&lt;/b&gt;" style="shape=partialRectangle;html=1;whiteSpace=wrap;connectable=0;fillColor=none;top=0;left=0;bottom=0;right=0;overflow=hidden;pointerEvents=1;rounded=0;shadow=0;sketch=0;fontSize=14;fontColor=#000000;strokeColor=#000000;strokeWidth=1;align=left;" parent="_rT02i8OdZy9hyLazdgX-61" vertex="1">
                    <mxGeometry width="120" height="20" as="geometry">
                        <mxRectangle width="120" height="20" as="alternateBounds"/>
                    </mxGeometry>
                </mxCell>
                <object label="t_formulaire_saisi_valeur" name="" id="_rT02i8OdZy9hyLazdgX-63">
                    <mxCell style="shape=table;startSize=30;container=1;collapsible=0;childLayout=tableLayout;fontStyle=1;align=center;pointerEvents=1;rounded=0;shadow=0;sketch=0;fontSize=14;fontColor=#ffffff;strokeColor=#3700CC;strokeWidth=1;fillColor=#6a00ff;" parent="M37x-w40fnPvyNNA2sr3-1" vertex="1">
                        <mxGeometry x="-190" y="-440" width="180" height="50" as="geometry"/>
                    </mxCell>
                </object>
                <mxCell id="_rT02i8OdZy9hyLazdgX-64" value="" style="shape=partialRectangle;html=1;whiteSpace=wrap;collapsible=0;dropTarget=0;pointerEvents=0;fillColor=none;top=0;left=0;bottom=0;right=0;points=[[0,0.5],[1,0.5]];portConstraint=eastwest;rounded=0;shadow=0;sketch=0;fontSize=14;fontColor=#FFFFFF;strokeColor=#000000;strokeWidth=1;" parent="_rT02i8OdZy9hyLazdgX-63" vertex="1">
                    <mxGeometry y="30" width="180" height="20" as="geometry"/>
                </mxCell>
                <mxCell id="_rT02i8OdZy9hyLazdgX-65" value="&lt;b&gt;id&lt;/b&gt;" style="shape=partialRectangle;html=1;whiteSpace=wrap;connectable=0;fillColor=none;top=0;left=0;bottom=0;right=0;overflow=hidden;pointerEvents=1;rounded=0;shadow=0;sketch=0;fontSize=14;fontColor=#000000;strokeColor=#000000;strokeWidth=1;align=left;" parent="_rT02i8OdZy9hyLazdgX-64" vertex="1">
                    <mxGeometry width="180" height="20" as="geometry">
                        <mxRectangle width="180" height="20" as="alternateBounds"/>
                    </mxGeometry>
                </mxCell>
                <object label="t_formulaire_champs" name="" id="_rT02i8OdZy9hyLazdgX-66">
                    <mxCell style="shape=table;startSize=30;container=1;collapsible=0;childLayout=tableLayout;fontStyle=1;align=center;pointerEvents=1;rounded=0;shadow=0;sketch=0;fontSize=14;fontColor=#000000;strokeColor=#B09500;strokeWidth=1;fillColor=#e3c800;" parent="M37x-w40fnPvyNNA2sr3-1" vertex="1">
                        <mxGeometry x="-770" y="-160" width="150" height="50" as="geometry"/>
                    </mxCell>
                </object>
                <mxCell id="_rT02i8OdZy9hyLazdgX-67" value="" style="shape=partialRectangle;html=1;whiteSpace=wrap;collapsible=0;dropTarget=0;pointerEvents=0;fillColor=none;top=0;left=0;bottom=0;right=0;points=[[0,0.5],[1,0.5]];portConstraint=eastwest;rounded=0;shadow=0;sketch=0;fontSize=14;fontColor=#FFFFFF;strokeColor=#000000;strokeWidth=1;" parent="_rT02i8OdZy9hyLazdgX-66" vertex="1">
                    <mxGeometry y="30" width="150" height="20" as="geometry"/>
                </mxCell>
                <mxCell id="_rT02i8OdZy9hyLazdgX-68" value="&lt;b&gt;id&lt;/b&gt;" style="shape=partialRectangle;html=1;whiteSpace=wrap;connectable=0;fillColor=none;top=0;left=0;bottom=0;right=0;overflow=hidden;pointerEvents=1;rounded=0;shadow=0;sketch=0;fontSize=14;fontColor=#000000;strokeColor=#000000;strokeWidth=1;align=left;" parent="_rT02i8OdZy9hyLazdgX-67" vertex="1">
                    <mxGeometry width="150" height="20" as="geometry">
                        <mxRectangle width="150" height="20" as="alternateBounds"/>
                    </mxGeometry>
                </mxCell>
                <mxCell id="33" style="edgeStyle=none;html=1;exitX=0.481;exitY=0.97;exitDx=0;exitDy=0;entryX=0.009;entryY=-0.082;entryDx=0;entryDy=0;entryPerimeter=0;strokeColor=#000000;exitPerimeter=0;" parent="M37x-w40fnPvyNNA2sr3-1" source="_rT02i8OdZy9hyLazdgX-70" target="30" edge="1">
                    <mxGeometry relative="1" as="geometry">
                        <Array as="points">
                            <mxPoint x="-391" y="-314"/>
                        </Array>
                    </mxGeometry>
                </mxCell>
                <object label="t_formulaire_saisi" name="" id="_rT02i8OdZy9hyLazdgX-69">
                    <mxCell style="shape=table;startSize=30;container=1;collapsible=0;childLayout=tableLayout;fontStyle=1;align=center;pointerEvents=1;rounded=0;shadow=0;sketch=0;fontSize=14;fontColor=#ffffff;strokeColor=#3700CC;strokeWidth=1;fillColor=#6a00ff;" parent="M37x-w40fnPvyNNA2sr3-1" vertex="1">
                        <mxGeometry x="-460" y="-440" width="140" height="50" as="geometry"/>
                    </mxCell>
                </object>
                <mxCell id="_rT02i8OdZy9hyLazdgX-70" value="" style="shape=partialRectangle;html=1;whiteSpace=wrap;collapsible=0;dropTarget=0;pointerEvents=0;fillColor=none;top=0;left=0;bottom=0;right=0;points=[[0,0.5],[1,0.5]];portConstraint=eastwest;rounded=0;shadow=0;sketch=0;fontSize=14;fontColor=#FFFFFF;strokeColor=#000000;strokeWidth=1;" parent="_rT02i8OdZy9hyLazdgX-69" vertex="1">
                    <mxGeometry y="30" width="140" height="20" as="geometry"/>
                </mxCell>
                <mxCell id="_rT02i8OdZy9hyLazdgX-71" value="&lt;b&gt;id&lt;/b&gt;" style="shape=partialRectangle;html=1;whiteSpace=wrap;connectable=0;fillColor=none;top=0;left=0;bottom=0;right=0;overflow=hidden;pointerEvents=1;rounded=0;shadow=0;sketch=0;fontSize=14;fontColor=#000000;strokeColor=#000000;strokeWidth=1;align=left;" parent="_rT02i8OdZy9hyLazdgX-70" vertex="1">
                    <mxGeometry width="140" height="20" as="geometry">
                        <mxRectangle width="140" height="20" as="alternateBounds"/>
                    </mxGeometry>
                </mxCell>
                <object label="t_groupe_champs" name="" id="_rT02i8OdZy9hyLazdgX-72">
                    <mxCell style="shape=table;startSize=30;container=1;collapsible=0;childLayout=tableLayout;fontStyle=1;align=center;pointerEvents=1;rounded=0;shadow=0;sketch=0;fontSize=14;fontColor=#000000;strokeColor=#B09500;strokeWidth=1;fillColor=#e3c800;" parent="M37x-w40fnPvyNNA2sr3-1" vertex="1">
                        <mxGeometry x="-490" y="-160" width="150" height="50" as="geometry"/>
                    </mxCell>
                </object>
                <mxCell id="_rT02i8OdZy9hyLazdgX-73" value="" style="shape=partialRectangle;html=1;whiteSpace=wrap;collapsible=0;dropTarget=0;pointerEvents=0;fillColor=none;top=0;left=0;bottom=0;right=0;points=[[0,0.5],[1,0.5]];portConstraint=eastwest;rounded=0;shadow=0;sketch=0;fontSize=14;fontColor=#FFFFFF;strokeColor=#000000;strokeWidth=1;" parent="_rT02i8OdZy9hyLazdgX-72" vertex="1">
                    <mxGeometry y="30" width="150" height="20" as="geometry"/>
                </mxCell>
                <mxCell id="_rT02i8OdZy9hyLazdgX-74" value="&lt;b&gt;id&lt;/b&gt;" style="shape=partialRectangle;html=1;whiteSpace=wrap;connectable=0;fillColor=none;top=0;left=0;bottom=0;right=0;overflow=hidden;pointerEvents=1;rounded=0;shadow=0;sketch=0;fontSize=14;fontColor=#000000;strokeColor=#000000;strokeWidth=1;align=left;" parent="_rT02i8OdZy9hyLazdgX-73" vertex="1">
                    <mxGeometry width="150" height="20" as="geometry">
                        <mxRectangle width="150" height="20" as="alternateBounds"/>
                    </mxGeometry>
                </mxCell>
                <mxCell id="_rT02i8OdZy9hyLazdgX-78" style="edgeStyle=elbowEdgeStyle;elbow=vertical;html=1;fontSize=14;fontColor=#000000;strokeColor=#000000;entryX=0.32;entryY=-0.044;entryDx=0;entryDy=0;entryPerimeter=0;" parent="M37x-w40fnPvyNNA2sr3-1" target="_rT02i8OdZy9hyLazdgX-66" edge="1">
                    <mxGeometry relative="1" as="geometry">
                        <mxPoint x="-720" y="-260" as="targetPoint"/>
                        <Array as="points">
                            <mxPoint x="-800" y="-350"/>
                            <mxPoint x="-790" y="-230"/>
                            <mxPoint x="-810" y="-250"/>
                            <mxPoint x="-810" y="-270"/>
                            <mxPoint x="-820" y="-340"/>
                        </Array>
                        <mxPoint x="-890" y="-350" as="sourcePoint"/>
                    </mxGeometry>
                </mxCell>
                <mxCell id="_rT02i8OdZy9hyLazdgX-79" style="edgeStyle=elbowEdgeStyle;elbow=vertical;html=1;exitX=0;exitY=0.5;exitDx=0;exitDy=0;entryX=1;entryY=0.5;entryDx=0;entryDy=0;fontSize=14;fontColor=#000000;strokeColor=#000000;" parent="M37x-w40fnPvyNNA2sr3-1" source="_rT02i8OdZy9hyLazdgX-73" target="_rT02i8OdZy9hyLazdgX-67" edge="1">
                    <mxGeometry relative="1" as="geometry"/>
                </mxCell>
                <mxCell id="_rT02i8OdZy9hyLazdgX-81" style="edgeStyle=elbowEdgeStyle;elbow=vertical;html=1;exitX=1;exitY=0.5;exitDx=0;exitDy=0;fontSize=14;fontColor=#000000;strokeColor=#000000;" parent="M37x-w40fnPvyNNA2sr3-1" source="_rT02i8OdZy9hyLazdgX-61" target="_rT02i8OdZy9hyLazdgX-70" edge="1">
                    <mxGeometry relative="1" as="geometry"/>
                </mxCell>
                <mxCell id="_rT02i8OdZy9hyLazdgX-83" style="edgeStyle=elbowEdgeStyle;elbow=vertical;html=1;fontSize=14;fontColor=#000000;strokeColor=#000000;entryX=0.5;entryY=0;entryDx=0;entryDy=0;entryPerimeter=0;" parent="M37x-w40fnPvyNNA2sr3-1" target="_rT02i8OdZy9hyLazdgX-60" edge="1">
                    <mxGeometry relative="1" as="geometry">
                        <mxPoint x="-690" y="-450" as="targetPoint"/>
                        <Array as="points">
                            <mxPoint x="-695" y="-510"/>
                            <mxPoint x="-670" y="-550"/>
                            <mxPoint x="-670" y="-520"/>
                        </Array>
                        <mxPoint x="-690" y="-560" as="sourcePoint"/>
                    </mxGeometry>
                </mxCell>
                <mxCell id="_rT02i8OdZy9hyLazdgX-85" style="edgeStyle=elbowEdgeStyle;elbow=vertical;html=1;exitX=0.26;exitY=1.111;exitDx=0;exitDy=0;entryX=0.5;entryY=0;entryDx=0;entryDy=0;fontSize=14;fontColor=#000000;strokeColor=#000000;exitPerimeter=0;" parent="M37x-w40fnPvyNNA2sr3-1" source="_rT02i8OdZy9hyLazdgX-26" target="_rT02i8OdZy9hyLazdgX-34" edge="1">
                    <mxGeometry relative="1" as="geometry">
                        <Array as="points">
                            <mxPoint x="-730" y="-520"/>
                            <mxPoint x="-880" y="-520"/>
                            <mxPoint x="-800" y="-570"/>
                            <mxPoint x="-920" y="-500"/>
                            <mxPoint x="-800" y="-540"/>
                            <mxPoint x="-660" y="-520"/>
                        </Array>
                    </mxGeometry>
                </mxCell>
                <mxCell id="_rT02i8OdZy9hyLazdgX-86" style="edgeStyle=elbowEdgeStyle;elbow=vertical;html=1;exitX=1;exitY=0.5;exitDx=0;exitDy=0;entryX=0;entryY=0.5;entryDx=0;entryDy=0;fontSize=14;fontColor=#000000;strokeColor=#000000;" parent="M37x-w40fnPvyNNA2sr3-1" source="_rT02i8OdZy9hyLazdgX-70" target="_rT02i8OdZy9hyLazdgX-64" edge="1">
                    <mxGeometry relative="1" as="geometry"/>
                </mxCell>
                <mxCell id="_rT02i8OdZy9hyLazdgX-95" style="edgeStyle=elbowEdgeStyle;elbow=vertical;html=1;exitX=0.507;exitY=1.07;exitDx=0;exitDy=0;fontSize=14;fontColor=#000000;strokeColor=#000000;exitPerimeter=0;" parent="M37x-w40fnPvyNNA2sr3-1" source="_rT02i8OdZy9hyLazdgX-38" target="_rT02i8OdZy9hyLazdgX-69" edge="1">
                    <mxGeometry relative="1" as="geometry">
                        <Array as="points">
                            <mxPoint x="-280" y="-480"/>
                            <mxPoint x="-260" y="-520"/>
                        </Array>
                    </mxGeometry>
                </mxCell>
                <object label="t_historique_cnx" name="" id="_rT02i8OdZy9hyLazdgX-102">
                    <mxCell style="shape=table;startSize=30;container=1;collapsible=0;childLayout=tableLayout;fontStyle=1;align=center;pointerEvents=1;rounded=0;shadow=0;sketch=0;fontSize=14;fontColor=#ffffff;strokeColor=#006EAF;strokeWidth=1;fillColor=#1ba1e2;" parent="M37x-w40fnPvyNNA2sr3-1" vertex="1">
                        <mxGeometry x="40" y="-740" width="120" height="50" as="geometry"/>
                    </mxCell>
                </object>
                <mxCell id="_rT02i8OdZy9hyLazdgX-103" value="" style="shape=partialRectangle;html=1;whiteSpace=wrap;collapsible=0;dropTarget=0;pointerEvents=0;fillColor=none;top=0;left=0;bottom=0;right=0;points=[[0,0.5],[1,0.5]];portConstraint=eastwest;rounded=0;shadow=0;sketch=0;fontSize=14;fontColor=#FFFFFF;strokeColor=#000000;strokeWidth=1;" parent="_rT02i8OdZy9hyLazdgX-102" vertex="1">
                    <mxGeometry y="30" width="120" height="20" as="geometry"/>
                </mxCell>
                <mxCell id="_rT02i8OdZy9hyLazdgX-104" value="&lt;b&gt;id&lt;/b&gt;" style="shape=partialRectangle;html=1;whiteSpace=wrap;connectable=0;fillColor=none;top=0;left=0;bottom=0;right=0;overflow=hidden;pointerEvents=1;rounded=0;shadow=0;sketch=0;fontSize=14;fontColor=#000000;strokeColor=#000000;strokeWidth=1;align=left;" parent="_rT02i8OdZy9hyLazdgX-103" vertex="1">
                    <mxGeometry width="120" height="20" as="geometry">
                        <mxRectangle width="120" height="20" as="alternateBounds"/>
                    </mxGeometry>
                </mxCell>
                <mxCell id="_rT02i8OdZy9hyLazdgX-157" style="edgeStyle=elbowEdgeStyle;elbow=vertical;html=1;exitX=0.5;exitY=0;exitDx=0;exitDy=0;entryX=0.506;entryY=1.144;entryDx=0;entryDy=0;entryPerimeter=0;fontSize=14;fontColor=#000000;strokeColor=#000000;" parent="M37x-w40fnPvyNNA2sr3-1" source="_rT02i8OdZy9hyLazdgX-105" target="_rT02i8OdZy9hyLazdgX-112" edge="1">
                    <mxGeometry relative="1" as="geometry"/>
                </mxCell>
                <mxCell id="1" style="edgeStyle=none;html=1;exitX=0.75;exitY=0;exitDx=0;exitDy=0;entryX=0;entryY=0.5;entryDx=0;entryDy=0;strokeColor=#000000;" parent="M37x-w40fnPvyNNA2sr3-1" source="_rT02i8OdZy9hyLazdgX-105" target="_rT02i8OdZy9hyLazdgX-115" edge="1">
                    <mxGeometry relative="1" as="geometry">
                        <Array as="points">
                            <mxPoint x="193" y="-361"/>
                        </Array>
                    </mxGeometry>
                </mxCell>
                <object label="workflows" name="" id="_rT02i8OdZy9hyLazdgX-105">
                    <mxCell style="shape=table;startSize=30;container=1;collapsible=0;childLayout=tableLayout;fontStyle=1;align=center;pointerEvents=1;rounded=0;shadow=0;sketch=0;fontSize=14;fontColor=#ffffff;strokeColor=#B20000;strokeWidth=1;fillColor=#e51400;" parent="M37x-w40fnPvyNNA2sr3-1" vertex="1">
                        <mxGeometry x="80" y="-290" width="150" height="50" as="geometry"/>
                    </mxCell>
                </object>
                <mxCell id="_rT02i8OdZy9hyLazdgX-106" value="" style="shape=partialRectangle;html=1;whiteSpace=wrap;collapsible=0;dropTarget=0;pointerEvents=0;fillColor=none;top=0;left=0;bottom=0;right=0;points=[[0,0.5],[1,0.5]];portConstraint=eastwest;rounded=0;shadow=0;sketch=0;fontSize=14;fontColor=#FFFFFF;strokeColor=#000000;strokeWidth=1;" parent="_rT02i8OdZy9hyLazdgX-105" vertex="1">
                    <mxGeometry y="30" width="150" height="20" as="geometry"/>
                </mxCell>
                <mxCell id="_rT02i8OdZy9hyLazdgX-107" value="&lt;b&gt;id&lt;/b&gt;" style="shape=partialRectangle;html=1;whiteSpace=wrap;connectable=0;fillColor=none;top=0;left=0;bottom=0;right=0;overflow=hidden;pointerEvents=1;rounded=0;shadow=0;sketch=0;fontSize=14;fontColor=#000000;strokeColor=#000000;strokeWidth=1;align=left;" parent="_rT02i8OdZy9hyLazdgX-106" vertex="1">
                    <mxGeometry width="150" height="20" as="geometry">
                        <mxRectangle width="150" height="20" as="alternateBounds"/>
                    </mxGeometry>
                </mxCell>
                <object label="task_log" name="" id="_rT02i8OdZy9hyLazdgX-108">
                    <mxCell style="shape=table;startSize=30;container=1;collapsible=0;childLayout=tableLayout;fontStyle=1;align=center;pointerEvents=1;rounded=0;shadow=0;sketch=0;fontSize=14;fontColor=#ffffff;strokeColor=#B20000;strokeWidth=1;fillColor=#e51400;" parent="M37x-w40fnPvyNNA2sr3-1" vertex="1">
                        <mxGeometry x="530" y="-400" width="150" height="50" as="geometry"/>
                    </mxCell>
                </object>
                <mxCell id="_rT02i8OdZy9hyLazdgX-109" value="" style="shape=partialRectangle;html=1;whiteSpace=wrap;collapsible=0;dropTarget=0;pointerEvents=0;fillColor=none;top=0;left=0;bottom=0;right=0;points=[[0,0.5],[1,0.5]];portConstraint=eastwest;rounded=0;shadow=0;sketch=0;fontSize=14;fontColor=#FFFFFF;strokeColor=#000000;strokeWidth=1;" parent="_rT02i8OdZy9hyLazdgX-108" vertex="1">
                    <mxGeometry y="30" width="150" height="20" as="geometry"/>
                </mxCell>
                <mxCell id="_rT02i8OdZy9hyLazdgX-110" value="&lt;b&gt;id&lt;/b&gt;" style="shape=partialRectangle;html=1;whiteSpace=wrap;connectable=0;fillColor=none;top=0;left=0;bottom=0;right=0;overflow=hidden;pointerEvents=1;rounded=0;shadow=0;sketch=0;fontSize=14;fontColor=#000000;strokeColor=#000000;strokeWidth=1;align=left;" parent="_rT02i8OdZy9hyLazdgX-109" vertex="1">
                    <mxGeometry width="150" height="20" as="geometry">
                        <mxRectangle width="150" height="20" as="alternateBounds"/>
                    </mxGeometry>
                </mxCell>
                <object label="triggers" name="" id="_rT02i8OdZy9hyLazdgX-111">
                    <mxCell style="shape=table;startSize=30;container=1;collapsible=0;childLayout=tableLayout;fontStyle=1;align=center;pointerEvents=1;rounded=0;shadow=0;sketch=0;fontSize=14;fontColor=#ffffff;strokeColor=#B20000;strokeWidth=1;fillColor=#e51400;" parent="M37x-w40fnPvyNNA2sr3-1" vertex="1">
                        <mxGeometry x="80" y="-610" width="150" height="50" as="geometry"/>
                    </mxCell>
                </object>
                <mxCell id="_rT02i8OdZy9hyLazdgX-112" value="" style="shape=partialRectangle;html=1;whiteSpace=wrap;collapsible=0;dropTarget=0;pointerEvents=0;fillColor=none;top=0;left=0;bottom=0;right=0;points=[[0,0.5],[1,0.5]];portConstraint=eastwest;rounded=0;shadow=0;sketch=0;fontSize=14;fontColor=#FFFFFF;strokeColor=#000000;strokeWidth=1;" parent="_rT02i8OdZy9hyLazdgX-111" vertex="1">
                    <mxGeometry y="30" width="150" height="20" as="geometry"/>
                </mxCell>
                <mxCell id="_rT02i8OdZy9hyLazdgX-113" value="&lt;b&gt;id&lt;/b&gt;" style="shape=partialRectangle;html=1;whiteSpace=wrap;connectable=0;fillColor=none;top=0;left=0;bottom=0;right=0;overflow=hidden;pointerEvents=1;rounded=0;shadow=0;sketch=0;fontSize=14;fontColor=#000000;strokeColor=#000000;strokeWidth=1;align=left;" parent="_rT02i8OdZy9hyLazdgX-112" vertex="1">
                    <mxGeometry width="150" height="20" as="geometry">
                        <mxRectangle width="150" height="20" as="alternateBounds"/>
                    </mxGeometry>
                </mxCell>
                <mxCell id="2" style="edgeStyle=none;html=1;exitX=0.5;exitY=0;exitDx=0;exitDy=0;entryX=0.503;entryY=1.109;entryDx=0;entryDy=0;entryPerimeter=0;strokeColor=#000000;" parent="M37x-w40fnPvyNNA2sr3-1" source="_rT02i8OdZy9hyLazdgX-114" target="_rT02i8OdZy9hyLazdgX-140" edge="1">
                    <mxGeometry relative="1" as="geometry"/>
                </mxCell>
                <object label="task" name="" id="_rT02i8OdZy9hyLazdgX-114">
                    <mxCell style="shape=table;startSize=28;container=1;collapsible=0;childLayout=tableLayout;fontStyle=1;align=center;pointerEvents=1;rounded=0;shadow=0;sketch=0;fontSize=14;fontColor=#ffffff;strokeColor=#B20000;strokeWidth=1;fillColor=#e51400;" parent="M37x-w40fnPvyNNA2sr3-1" vertex="1">
                        <mxGeometry x="240" y="-400" width="150" height="50" as="geometry"/>
                    </mxCell>
                </object>
                <mxCell id="_rT02i8OdZy9hyLazdgX-115" value="" style="shape=partialRectangle;html=1;whiteSpace=wrap;collapsible=0;dropTarget=0;pointerEvents=0;fillColor=none;top=0;left=0;bottom=0;right=0;points=[[0,0.5],[1,0.5]];portConstraint=eastwest;rounded=0;shadow=0;sketch=0;fontSize=14;fontColor=#FFFFFF;strokeColor=#000000;strokeWidth=1;" parent="_rT02i8OdZy9hyLazdgX-114" vertex="1">
                    <mxGeometry y="28" width="150" height="22" as="geometry"/>
                </mxCell>
                <mxCell id="_rT02i8OdZy9hyLazdgX-116" value="&lt;b&gt;id&lt;/b&gt;" style="shape=partialRectangle;html=1;whiteSpace=wrap;connectable=0;fillColor=none;top=0;left=0;bottom=0;right=0;overflow=hidden;pointerEvents=1;rounded=0;shadow=0;sketch=0;fontSize=14;fontColor=#000000;strokeColor=#000000;strokeWidth=1;align=left;" parent="_rT02i8OdZy9hyLazdgX-115" vertex="1">
                    <mxGeometry width="150" height="22" as="geometry">
                        <mxRectangle width="150" height="22" as="alternateBounds"/>
                    </mxGeometry>
                </mxCell>
                <object label="workflows_log" name="" id="_rT02i8OdZy9hyLazdgX-117">
                    <mxCell style="shape=table;startSize=30;container=1;collapsible=0;childLayout=tableLayout;fontStyle=1;align=center;pointerEvents=1;rounded=0;shadow=0;sketch=0;fontSize=14;fontColor=#ffffff;strokeColor=#B20000;strokeWidth=1;fillColor=#e51400;" parent="M37x-w40fnPvyNNA2sr3-1" vertex="1">
                        <mxGeometry x="310" y="-290" width="150" height="50" as="geometry"/>
                    </mxCell>
                </object>
                <mxCell id="_rT02i8OdZy9hyLazdgX-118" value="" style="shape=partialRectangle;html=1;whiteSpace=wrap;collapsible=0;dropTarget=0;pointerEvents=0;fillColor=none;top=0;left=0;bottom=0;right=0;points=[[0,0.5],[1,0.5]];portConstraint=eastwest;rounded=0;shadow=0;sketch=0;fontSize=14;fontColor=#FFFFFF;strokeColor=#000000;strokeWidth=1;" parent="_rT02i8OdZy9hyLazdgX-117" vertex="1">
                    <mxGeometry y="30" width="150" height="20" as="geometry"/>
                </mxCell>
                <mxCell id="_rT02i8OdZy9hyLazdgX-119" value="&lt;b&gt;id&lt;/b&gt;" style="shape=partialRectangle;html=1;whiteSpace=wrap;connectable=0;fillColor=none;top=0;left=0;bottom=0;right=0;overflow=hidden;pointerEvents=1;rounded=0;shadow=0;sketch=0;fontSize=14;fontColor=#000000;strokeColor=#000000;strokeWidth=1;align=left;" parent="_rT02i8OdZy9hyLazdgX-118" vertex="1">
                    <mxGeometry width="150" height="20" as="geometry">
                        <mxRectangle width="150" height="20" as="alternateBounds"/>
                    </mxGeometry>
                </mxCell>
                <mxCell id="_rT02i8OdZy9hyLazdgX-123" style="edgeStyle=elbowEdgeStyle;elbow=vertical;html=1;exitX=1;exitY=0.5;exitDx=0;exitDy=0;entryX=0;entryY=0.5;entryDx=0;entryDy=0;fontSize=14;fontColor=#000000;strokeColor=#000000;" parent="M37x-w40fnPvyNNA2sr3-1" source="_rT02i8OdZy9hyLazdgX-106" target="_rT02i8OdZy9hyLazdgX-118" edge="1">
                    <mxGeometry relative="1" as="geometry"/>
                </mxCell>
                <mxCell id="_rT02i8OdZy9hyLazdgX-125" style="edgeStyle=elbowEdgeStyle;elbow=vertical;html=1;exitX=1;exitY=0.5;exitDx=0;exitDy=0;entryX=0;entryY=0.5;entryDx=0;entryDy=0;fontSize=14;fontColor=#000000;strokeColor=#000000;" parent="M37x-w40fnPvyNNA2sr3-1" source="_rT02i8OdZy9hyLazdgX-115" target="_rT02i8OdZy9hyLazdgX-109" edge="1">
                    <mxGeometry relative="1" as="geometry"/>
                </mxCell>
                <mxCell id="_rT02i8OdZy9hyLazdgX-126" style="edgeStyle=elbowEdgeStyle;elbow=vertical;html=1;exitX=1;exitY=0.5;exitDx=0;exitDy=0;entryX=0;entryY=0.5;entryDx=0;entryDy=0;fontSize=14;fontColor=#000000;strokeColor=#000000;" parent="M37x-w40fnPvyNNA2sr3-1" source="_rT02i8OdZy9hyLazdgX-38" target="_rT02i8OdZy9hyLazdgX-112" edge="1">
                    <mxGeometry relative="1" as="geometry"/>
                </mxCell>
                <mxCell id="_rT02i8OdZy9hyLazdgX-127" style="edgeStyle=elbowEdgeStyle;elbow=vertical;html=1;entryX=0.25;entryY=0;entryDx=0;entryDy=0;fontSize=14;fontColor=#000000;strokeColor=#000000;exitX=0.522;exitY=1.07;exitDx=0;exitDy=0;exitPerimeter=0;" parent="M37x-w40fnPvyNNA2sr3-1" source="_rT02i8OdZy9hyLazdgX-26" target="_rT02i8OdZy9hyLazdgX-105" edge="1">
                    <mxGeometry relative="1" as="geometry">
                        <mxPoint x="-662" y="-390" as="sourcePoint"/>
                        <Array as="points">
                            <mxPoint x="-20" y="-480"/>
                            <mxPoint x="-290" y="-490"/>
                            <mxPoint x="-280" y="-360"/>
                        </Array>
                    </mxGeometry>
                </mxCell>
                <mxCell id="_rT02i8OdZy9hyLazdgX-133" style="edgeStyle=elbowEdgeStyle;elbow=vertical;html=1;exitX=0;exitY=0.5;exitDx=0;exitDy=0;fontSize=14;fontColor=#000000;strokeColor=#000000;" parent="M37x-w40fnPvyNNA2sr3-1" source="_rT02i8OdZy9hyLazdgX-17" edge="1">
                    <mxGeometry relative="1" as="geometry">
                        <mxPoint x="-620" y="-575" as="targetPoint"/>
                    </mxGeometry>
                </mxCell>
                <object label="t_niveaux_formulaires" name="" id="_rT02i8OdZy9hyLazdgX-134">
                    <mxCell style="shape=table;startSize=30;container=1;collapsible=0;childLayout=tableLayout;fontStyle=1;align=center;pointerEvents=1;rounded=0;shadow=0;sketch=0;fontSize=14;strokeColor=#A50040;strokeWidth=1;fillColor=#d80073;fontColor=#ffffff;" parent="M37x-w40fnPvyNNA2sr3-1" vertex="1">
                        <mxGeometry x="-480" y="-280" width="150" height="50" as="geometry"/>
                    </mxCell>
                </object>
                <mxCell id="_rT02i8OdZy9hyLazdgX-135" value="" style="shape=partialRectangle;html=1;whiteSpace=wrap;collapsible=0;dropTarget=0;pointerEvents=0;fillColor=none;top=0;left=0;bottom=0;right=0;points=[[0,0.5],[1,0.5]];portConstraint=eastwest;rounded=0;shadow=0;sketch=0;fontSize=14;fontColor=#FFFFFF;strokeColor=#000000;strokeWidth=1;" parent="_rT02i8OdZy9hyLazdgX-134" vertex="1">
                    <mxGeometry y="30" width="150" height="20" as="geometry"/>
                </mxCell>
                <mxCell id="_rT02i8OdZy9hyLazdgX-136" value="&lt;b&gt;id&lt;/b&gt;" style="shape=partialRectangle;html=1;whiteSpace=wrap;connectable=0;fillColor=none;top=0;left=0;bottom=0;right=0;overflow=hidden;pointerEvents=1;rounded=0;shadow=0;sketch=0;fontSize=14;fontColor=#000000;strokeColor=#000000;strokeWidth=1;align=left;" parent="_rT02i8OdZy9hyLazdgX-135" vertex="1">
                    <mxGeometry width="150" height="20" as="geometry">
                        <mxRectangle width="150" height="20" as="alternateBounds"/>
                    </mxGeometry>
                </mxCell>
                <mxCell id="32" style="edgeStyle=none;html=1;strokeColor=#000000;entryX=1;entryY=0.5;entryDx=0;entryDy=0;" parent="M37x-w40fnPvyNNA2sr3-1" target="29" edge="1">
                    <mxGeometry relative="1" as="geometry">
                        <mxPoint x="-30" y="-320" as="targetPoint"/>
                        <Array as="points">
                            <mxPoint x="275" y="-460"/>
                            <mxPoint x="70" y="-460"/>
                            <mxPoint x="70" y="-315"/>
                        </Array>
                        <mxPoint x="275" y="-490" as="sourcePoint"/>
                    </mxGeometry>
                </mxCell>
                <object label="t_niveau_validation" name="" id="_rT02i8OdZy9hyLazdgX-139">
                    <mxCell style="shape=table;startSize=29;container=1;collapsible=0;childLayout=tableLayout;fontStyle=1;align=center;pointerEvents=1;rounded=0;shadow=0;sketch=0;fontSize=14;fontColor=#ffffff;strokeColor=#B20000;strokeWidth=1;fillColor=#e51400;" parent="M37x-w40fnPvyNNA2sr3-1" vertex="1">
                        <mxGeometry x="240" y="-539" width="150" height="50" as="geometry"/>
                    </mxCell>
                </object>
                <mxCell id="_rT02i8OdZy9hyLazdgX-140" value="" style="shape=partialRectangle;html=1;whiteSpace=wrap;collapsible=0;dropTarget=0;pointerEvents=0;fillColor=none;top=0;left=0;bottom=0;right=0;points=[[0,0.5],[1,0.5]];portConstraint=eastwest;rounded=0;shadow=0;sketch=0;fontSize=14;fontColor=#FFFFFF;strokeColor=#000000;strokeWidth=1;" parent="_rT02i8OdZy9hyLazdgX-139" vertex="1">
                    <mxGeometry y="29" width="150" height="21" as="geometry"/>
                </mxCell>
                <mxCell id="_rT02i8OdZy9hyLazdgX-141" value="&lt;b&gt;id&lt;/b&gt;" style="shape=partialRectangle;html=1;whiteSpace=wrap;connectable=0;fillColor=none;top=0;left=0;bottom=0;right=0;overflow=hidden;pointerEvents=1;rounded=0;shadow=0;sketch=0;fontSize=14;fontColor=#000000;strokeColor=#000000;strokeWidth=1;align=left;" parent="_rT02i8OdZy9hyLazdgX-140" vertex="1">
                    <mxGeometry width="150" height="21" as="geometry">
                        <mxRectangle width="150" height="21" as="alternateBounds"/>
                    </mxGeometry>
                </mxCell>
                <mxCell id="_rT02i8OdZy9hyLazdgX-152" style="edgeStyle=elbowEdgeStyle;elbow=vertical;html=1;fontSize=14;fontColor=#000000;strokeColor=#000000;" parent="M37x-w40fnPvyNNA2sr3-1" target="_rT02i8OdZy9hyLazdgX-140" edge="1">
                    <mxGeometry relative="1" as="geometry">
                        <Array as="points">
                            <mxPoint x="180" y="-510"/>
                        </Array>
                        <mxPoint x="170" y="-290" as="sourcePoint"/>
                    </mxGeometry>
                </mxCell>
                <object label="t_notification" name="" id="_rT02i8OdZy9hyLazdgX-153">
                    <mxCell style="shape=table;startSize=20;container=1;collapsible=0;childLayout=tableLayout;fontStyle=1;align=center;pointerEvents=1;rounded=0;shadow=0;sketch=0;fontSize=14;fontColor=#ffffff;strokeColor=#B20000;strokeWidth=1;fillColor=#e51400;" parent="M37x-w40fnPvyNNA2sr3-1" vertex="1">
                        <mxGeometry x="240" y="-730" width="150" height="50" as="geometry"/>
                    </mxCell>
                </object>
                <mxCell id="_rT02i8OdZy9hyLazdgX-154" value="" style="shape=partialRectangle;html=1;whiteSpace=wrap;collapsible=0;dropTarget=0;pointerEvents=0;fillColor=none;top=0;left=0;bottom=0;right=0;points=[[0,0.5],[1,0.5]];portConstraint=eastwest;rounded=0;shadow=0;sketch=0;fontSize=14;fontColor=#FFFFFF;strokeColor=#000000;strokeWidth=1;" parent="_rT02i8OdZy9hyLazdgX-153" vertex="1">
                    <mxGeometry y="20" width="150" height="30" as="geometry"/>
                </mxCell>
                <mxCell id="_rT02i8OdZy9hyLazdgX-155" value="&lt;b&gt;id&lt;/b&gt;" style="shape=partialRectangle;html=1;whiteSpace=wrap;connectable=0;fillColor=none;top=0;left=0;bottom=0;right=0;overflow=hidden;pointerEvents=1;rounded=0;shadow=0;sketch=0;fontSize=14;fontColor=#000000;strokeColor=#000000;strokeWidth=1;align=left;" parent="_rT02i8OdZy9hyLazdgX-154" vertex="1">
                    <mxGeometry width="150" height="30" as="geometry">
                        <mxRectangle width="150" height="30" as="alternateBounds"/>
                    </mxGeometry>
                </mxCell>
                <mxCell id="_rT02i8OdZy9hyLazdgX-156" style="edgeStyle=elbowEdgeStyle;elbow=vertical;html=1;fontSize=14;fontColor=#000000;strokeColor=#000000;entryX=0.524;entryY=1.119;entryDx=0;entryDy=0;entryPerimeter=0;" parent="M37x-w40fnPvyNNA2sr3-1" target="_rT02i8OdZy9hyLazdgX-154" edge="1">
                    <mxGeometry relative="1" as="geometry">
                        <mxPoint x="319" y="-540" as="sourcePoint"/>
                        <mxPoint x="470" y="-430" as="targetPoint"/>
                        <Array as="points">
                            <mxPoint x="315" y="-650"/>
                            <mxPoint x="330" y="-630"/>
                            <mxPoint x="430" y="-430"/>
                        </Array>
                    </mxGeometry>
                </mxCell>
                <mxCell id="49" style="edgeStyle=none;html=1;exitX=0.728;exitY=1.13;exitDx=0;exitDy=0;entryX=0;entryY=0.5;entryDx=0;entryDy=0;strokeColor=#000000;exitPerimeter=0;" parent="M37x-w40fnPvyNNA2sr3-1" source="_rT02i8OdZy9hyLazdgX-1" target="46" edge="1">
                    <mxGeometry relative="1" as="geometry">
                        <Array as="points">
                            <mxPoint x="-1073" y="-715"/>
                        </Array>
                    </mxGeometry>
                </mxCell>
                <object label="users" name="" id="_rT02i8OdZy9hyLazdgX-0">
                    <mxCell style="shape=table;startSize=30;container=1;collapsible=0;childLayout=tableLayout;fontStyle=1;align=center;pointerEvents=1;rounded=0;shadow=0;sketch=0;fontSize=14;fontColor=#ffffff;strokeColor=#6D1F00;strokeWidth=1;fillColor=#a0522d;" parent="M37x-w40fnPvyNNA2sr3-1" vertex="1">
                        <mxGeometry x="-1160" y="-800" width="120" height="50" as="geometry"/>
                    </mxCell>
                </object>
                <mxCell id="_rT02i8OdZy9hyLazdgX-1" value="" style="shape=partialRectangle;html=1;whiteSpace=wrap;collapsible=0;dropTarget=0;pointerEvents=0;fillColor=none;top=0;left=0;bottom=0;right=0;points=[[0,0.5],[1,0.5]];portConstraint=eastwest;rounded=0;shadow=0;sketch=0;fontSize=14;fontColor=#FFFFFF;strokeColor=#000000;strokeWidth=1;" parent="_rT02i8OdZy9hyLazdgX-0" vertex="1">
                    <mxGeometry y="30" width="120" height="20" as="geometry"/>
                </mxCell>
                <mxCell id="_rT02i8OdZy9hyLazdgX-2" value="&lt;b&gt;id&lt;/b&gt;" style="shape=partialRectangle;html=1;whiteSpace=wrap;connectable=0;fillColor=none;top=0;left=0;bottom=0;right=0;overflow=hidden;pointerEvents=1;rounded=0;shadow=0;sketch=0;fontSize=14;fontColor=#000000;strokeColor=#000000;strokeWidth=1;align=left;" parent="_rT02i8OdZy9hyLazdgX-1" vertex="1">
                    <mxGeometry width="120" height="20" as="geometry">
                        <mxRectangle width="120" height="20" as="alternateBounds"/>
                    </mxGeometry>
                </mxCell>
                <object label="t_historique_cnx" name="" id="_rT02i8OdZy9hyLazdgX-99">
                    <mxCell style="shape=table;startSize=30;container=1;collapsible=0;childLayout=tableLayout;fontStyle=1;align=center;pointerEvents=1;rounded=0;shadow=0;sketch=0;fontSize=14;fontColor=#ffffff;strokeColor=#6D1F00;strokeWidth=1;fillColor=#a0522d;" parent="M37x-w40fnPvyNNA2sr3-1" vertex="1">
                        <mxGeometry x="-1160" y="-600" width="120" height="50" as="geometry"/>
                    </mxCell>
                </object>
                <mxCell id="_rT02i8OdZy9hyLazdgX-100" value="" style="shape=partialRectangle;html=1;whiteSpace=wrap;collapsible=0;dropTarget=0;pointerEvents=0;fillColor=none;top=0;left=0;bottom=0;right=0;points=[[0,0.5],[1,0.5]];portConstraint=eastwest;rounded=0;shadow=0;sketch=0;fontSize=14;fontColor=#FFFFFF;strokeColor=#000000;strokeWidth=1;" parent="_rT02i8OdZy9hyLazdgX-99" vertex="1">
                    <mxGeometry y="30" width="120" height="20" as="geometry"/>
                </mxCell>
                <mxCell id="_rT02i8OdZy9hyLazdgX-101" value="&lt;b&gt;id&lt;/b&gt;" style="shape=partialRectangle;html=1;whiteSpace=wrap;connectable=0;fillColor=none;top=0;left=0;bottom=0;right=0;overflow=hidden;pointerEvents=1;rounded=0;shadow=0;sketch=0;fontSize=14;fontColor=#000000;strokeColor=#000000;strokeWidth=1;align=left;" parent="_rT02i8OdZy9hyLazdgX-100" vertex="1">
                    <mxGeometry width="120" height="20" as="geometry">
                        <mxRectangle width="120" height="20" as="alternateBounds"/>
                    </mxGeometry>
                </mxCell>
                <mxCell id="_rT02i8OdZy9hyLazdgX-159" style="edgeStyle=elbowEdgeStyle;elbow=vertical;html=1;exitX=0.499;exitY=1.133;exitDx=0;exitDy=0;entryX=0.5;entryY=0;entryDx=0;entryDy=0;fontSize=14;fontColor=#000000;strokeColor=#000000;exitPerimeter=0;" parent="M37x-w40fnPvyNNA2sr3-1" source="_rT02i8OdZy9hyLazdgX-1" target="_rT02i8OdZy9hyLazdgX-99" edge="1">
                    <mxGeometry relative="1" as="geometry"/>
                </mxCell>
                <mxCell id="6" style="edgeStyle=none;html=1;exitX=1;exitY=0.5;exitDx=0;exitDy=0;strokeColor=#000000;" parent="M37x-w40fnPvyNNA2sr3-1" source="_rT02i8OdZy9hyLazdgX-17" edge="1">
                    <mxGeometry relative="1" as="geometry">
                        <mxPoint x="-240" y="-575" as="targetPoint"/>
                    </mxGeometry>
                </mxCell>
                <mxCell id="7" style="edgeStyle=none;html=1;entryX=0;entryY=0.5;entryDx=0;entryDy=0;strokeColor=#000000;" parent="M37x-w40fnPvyNNA2sr3-1" target="_rT02i8OdZy9hyLazdgX-135" edge="1">
                    <mxGeometry relative="1" as="geometry">
                        <Array as="points">
                            <mxPoint x="-680" y="-240"/>
                        </Array>
                        <mxPoint x="-680" y="-390" as="sourcePoint"/>
                    </mxGeometry>
                </mxCell>
                <mxCell id="13" style="edgeStyle=none;html=1;exitX=0.786;exitY=0;exitDx=0;exitDy=0;strokeColor=#000000;exitPerimeter=0;" parent="M37x-w40fnPvyNNA2sr3-1" source="_rT02i8OdZy9hyLazdgX-69" edge="1">
                    <mxGeometry relative="1" as="geometry">
                        <Array as="points">
                            <mxPoint x="-350" y="-480"/>
                            <mxPoint x="121" y="-480"/>
                        </Array>
                        <mxPoint x="121" y="-560" as="targetPoint"/>
                    </mxGeometry>
                </mxCell>
                <mxCell id="14" style="edgeStyle=none;html=1;exitX=0.75;exitY=0;exitDx=0;exitDy=0;entryX=0.5;entryY=0;entryDx=0;entryDy=0;strokeColor=#000000;" parent="M37x-w40fnPvyNNA2sr3-1" source="_rT02i8OdZy9hyLazdgX-34" target="_rT02i8OdZy9hyLazdgX-63" edge="1">
                    <mxGeometry relative="1" as="geometry">
                        <Array as="points">
                            <mxPoint x="-920" y="-480"/>
                            <mxPoint x="-100" y="-480"/>
                        </Array>
                    </mxGeometry>
                </mxCell>
                <mxCell id="28" style="edgeStyle=elbowEdgeStyle;elbow=vertical;html=1;exitX=0.5;exitY=0;exitDx=0;exitDy=0;entryX=1;entryY=0.25;entryDx=0;entryDy=0;fontSize=14;fontColor=#000000;strokeColor=#000000;" parent="M37x-w40fnPvyNNA2sr3-1" source="_rT02i8OdZy9hyLazdgX-0" target="_rT02i8OdZy9hyLazdgX-114" edge="1">
                    <mxGeometry relative="1" as="geometry">
                        <Array as="points">
                            <mxPoint x="500" y="-430"/>
                            <mxPoint x="540" y="-560"/>
                            <mxPoint x="560" y="-450"/>
                            <mxPoint x="560" y="-690"/>
                            <mxPoint x="-1010" y="-810"/>
                            <mxPoint x="550" y="-765"/>
                            <mxPoint x="-970" y="-800"/>
                            <mxPoint x="-1050" y="-690"/>
                            <mxPoint x="300" y="-800"/>
                        </Array>
                        <mxPoint x="400.5999999999999" y="-496.6" as="targetPoint"/>
                        <mxPoint x="-1030" y="-765" as="sourcePoint"/>
                    </mxGeometry>
                </mxCell>
                <object label="t_validation_forms" name="" id="29">
                    <mxCell style="shape=table;startSize=28;container=1;collapsible=0;childLayout=tableLayout;fontStyle=1;align=center;pointerEvents=1;rounded=0;shadow=0;sketch=0;fontSize=14;fontColor=#ffffff;strokeColor=#B20000;strokeWidth=1;fillColor=#e51400;" parent="M37x-w40fnPvyNNA2sr3-1" vertex="1">
                        <mxGeometry x="-190" y="-340" width="150" height="50" as="geometry"/>
                    </mxCell>
                </object>
                <mxCell id="30" value="" style="shape=partialRectangle;html=1;whiteSpace=wrap;collapsible=0;dropTarget=0;pointerEvents=0;fillColor=none;top=0;left=0;bottom=0;right=0;points=[[0,0.5],[1,0.5]];portConstraint=eastwest;rounded=0;shadow=0;sketch=0;fontSize=14;fontColor=#FFFFFF;strokeColor=#000000;strokeWidth=1;" parent="29" vertex="1">
                    <mxGeometry y="28" width="150" height="22" as="geometry"/>
                </mxCell>
                <mxCell id="31" value="&lt;b&gt;id&lt;/b&gt;" style="shape=partialRectangle;html=1;whiteSpace=wrap;connectable=0;fillColor=none;top=0;left=0;bottom=0;right=0;overflow=hidden;pointerEvents=1;rounded=0;shadow=0;sketch=0;fontSize=14;fontColor=#000000;strokeColor=#000000;strokeWidth=1;align=left;" parent="30" vertex="1">
                    <mxGeometry width="150" height="22" as="geometry">
                        <mxRectangle width="150" height="22" as="alternateBounds"/>
                    </mxGeometry>
                </mxCell>
                <object label="t_ref_demandes" name="" id="34">
                    <mxCell style="shape=table;startSize=30;container=1;collapsible=0;childLayout=tableLayout;fontStyle=1;align=center;pointerEvents=1;rounded=0;shadow=0;sketch=0;fontSize=14;strokeColor=#36393d;strokeWidth=1;fillColor=#00CC66;" parent="M37x-w40fnPvyNNA2sr3-1" vertex="1">
                        <mxGeometry x="-500" y="-550" width="140" height="50" as="geometry"/>
                    </mxCell>
                </object>
                <mxCell id="35" value="" style="shape=partialRectangle;html=1;whiteSpace=wrap;collapsible=0;dropTarget=0;pointerEvents=0;fillColor=none;top=0;left=0;bottom=0;right=0;points=[[0,0.5],[1,0.5]];portConstraint=eastwest;rounded=0;shadow=0;sketch=0;fontSize=14;fontColor=#FFFFFF;strokeColor=#000000;strokeWidth=1;" parent="34" vertex="1">
                    <mxGeometry y="30" width="140" height="20" as="geometry"/>
                </mxCell>
                <mxCell id="36" value="&lt;b&gt;id&lt;/b&gt;" style="shape=partialRectangle;html=1;whiteSpace=wrap;connectable=0;fillColor=none;top=0;left=0;bottom=0;right=0;overflow=hidden;pointerEvents=1;rounded=0;shadow=0;sketch=0;fontSize=14;fontColor=#000000;strokeColor=#000000;strokeWidth=1;align=left;" parent="35" vertex="1">
                    <mxGeometry width="140" height="20" as="geometry">
                        <mxRectangle width="140" height="20" as="alternateBounds"/>
                    </mxGeometry>
                </mxCell>
                <mxCell id="37" style="edgeStyle=none;html=1;exitX=0.328;exitY=1.16;exitDx=0;exitDy=0;entryX=1;entryY=0.5;entryDx=0;entryDy=0;fontColor=#00FF00;strokeColor=#000000;exitPerimeter=0;" parent="M37x-w40fnPvyNNA2sr3-1" source="_rT02i8OdZy9hyLazdgX-38" target="34" edge="1">
                    <mxGeometry relative="1" as="geometry">
                        <Array as="points">
                            <mxPoint x="-201" y="-525"/>
                        </Array>
                    </mxGeometry>
                </mxCell>
                <mxCell id="38" style="edgeStyle=none;html=1;exitX=0.539;exitY=1.12;exitDx=0;exitDy=0;entryX=0.25;entryY=0;entryDx=0;entryDy=0;fontColor=#00FF00;strokeColor=#000000;exitPerimeter=0;" parent="M37x-w40fnPvyNNA2sr3-1" source="35" target="_rT02i8OdZy9hyLazdgX-69" edge="1">
                    <mxGeometry relative="1" as="geometry"/>
                </mxCell>
                <mxCell id="39" style="edgeStyle=none;html=1;exitX=1;exitY=0.5;exitDx=0;exitDy=0;fontColor=#00FF00;strokeColor=#000000;" parent="M37x-w40fnPvyNNA2sr3-1" source="35" edge="1">
                    <mxGeometry relative="1" as="geometry">
                        <mxPoint x="107" y="-560" as="targetPoint"/>
                        <Array as="points">
                            <mxPoint x="107" y="-510"/>
                        </Array>
                    </mxGeometry>
                </mxCell>
                <object label="t_client_entriprises" name="" id="41">
                    <mxCell style="shape=table;startSize=30;container=1;collapsible=0;childLayout=tableLayout;fontStyle=1;align=center;pointerEvents=1;rounded=0;shadow=0;sketch=0;fontSize=14;fontColor=#ffffff;strokeColor=#006EAF;strokeWidth=1;fillColor=#1ba1e2;" parent="M37x-w40fnPvyNNA2sr3-1" vertex="1">
                        <mxGeometry x="-200" y="-740" width="150" height="50" as="geometry"/>
                    </mxCell>
                </object>
                <mxCell id="42" value="" style="shape=partialRectangle;html=1;whiteSpace=wrap;collapsible=0;dropTarget=0;pointerEvents=0;fillColor=none;top=0;left=0;bottom=0;right=0;points=[[0,0.5],[1,0.5]];portConstraint=eastwest;rounded=0;shadow=0;sketch=0;fontSize=14;fontColor=#FFFFFF;strokeColor=#000000;strokeWidth=1;" parent="41" vertex="1">
                    <mxGeometry y="30" width="150" height="20" as="geometry"/>
                </mxCell>
                <mxCell id="43" value="&lt;b&gt;id&lt;/b&gt;" style="shape=partialRectangle;html=1;whiteSpace=wrap;connectable=0;fillColor=none;top=0;left=0;bottom=0;right=0;overflow=hidden;pointerEvents=1;rounded=0;shadow=0;sketch=0;fontSize=14;fontColor=#000000;strokeColor=#000000;strokeWidth=1;align=left;" parent="42" vertex="1">
                    <mxGeometry width="150" height="20" as="geometry">
                        <mxRectangle width="150" height="20" as="alternateBounds"/>
                    </mxGeometry>
                </mxCell>
                <mxCell id="45" style="edgeStyle=none;html=1;exitX=1;exitY=0.5;exitDx=0;exitDy=0;entryX=0;entryY=0.5;entryDx=0;entryDy=0;strokeColor=#000000;" parent="M37x-w40fnPvyNNA2sr3-1" source="_rT02i8OdZy9hyLazdgX-32" target="42" edge="1">
                    <mxGeometry relative="1" as="geometry"/>
                </mxCell>
                <object label="t_otp" name="" id="46">
                    <mxCell style="shape=table;startSize=30;container=1;collapsible=0;childLayout=tableLayout;fontStyle=1;align=center;pointerEvents=1;rounded=0;shadow=0;sketch=0;fontSize=14;fontColor=#ffffff;strokeColor=#6D1F00;strokeWidth=1;fillColor=#a0522d;" parent="M37x-w40fnPvyNNA2sr3-1" vertex="1">
                        <mxGeometry x="-960" y="-740" width="120" height="50" as="geometry"/>
                    </mxCell>
                </object>
                <mxCell id="47" value="" style="shape=partialRectangle;html=1;whiteSpace=wrap;collapsible=0;dropTarget=0;pointerEvents=0;fillColor=none;top=0;left=0;bottom=0;right=0;points=[[0,0.5],[1,0.5]];portConstraint=eastwest;rounded=0;shadow=0;sketch=0;fontSize=14;fontColor=#FFFFFF;strokeColor=#000000;strokeWidth=1;" parent="46" vertex="1">
                    <mxGeometry y="30" width="120" height="20" as="geometry"/>
                </mxCell>
                <mxCell id="48" value="&lt;b&gt;id&lt;/b&gt;" style="shape=partialRectangle;html=1;whiteSpace=wrap;connectable=0;fillColor=none;top=0;left=0;bottom=0;right=0;overflow=hidden;pointerEvents=1;rounded=0;shadow=0;sketch=0;fontSize=14;fontColor=#000000;strokeColor=#000000;strokeWidth=1;align=left;" parent="47" vertex="1">
                    <mxGeometry width="120" height="20" as="geometry">
                        <mxRectangle width="120" height="20" as="alternateBounds"/>
                    </mxGeometry>
                </mxCell>
                <object label="t_validateurs" name="" id="50">
                    <mxCell style="shape=table;startSize=29;container=1;collapsible=0;childLayout=tableLayout;fontStyle=1;align=center;pointerEvents=1;rounded=0;shadow=0;sketch=0;fontSize=14;fontColor=#ffffff;strokeColor=#B20000;strokeWidth=1;fillColor=#e51400;" vertex="1" parent="M37x-w40fnPvyNNA2sr3-1">
                        <mxGeometry x="520" y="-640" width="150" height="50" as="geometry"/>
                    </mxCell>
                </object>
                <mxCell id="51" value="" style="shape=partialRectangle;html=1;whiteSpace=wrap;collapsible=0;dropTarget=0;pointerEvents=0;fillColor=none;top=0;left=0;bottom=0;right=0;points=[[0,0.5],[1,0.5]];portConstraint=eastwest;rounded=0;shadow=0;sketch=0;fontSize=14;fontColor=#FFFFFF;strokeColor=#000000;strokeWidth=1;" vertex="1" parent="50">
                    <mxGeometry y="29" width="150" height="21" as="geometry"/>
                </mxCell>
                <mxCell id="52" value="&lt;b&gt;id&lt;/b&gt;" style="shape=partialRectangle;html=1;whiteSpace=wrap;connectable=0;fillColor=none;top=0;left=0;bottom=0;right=0;overflow=hidden;pointerEvents=1;rounded=0;shadow=0;sketch=0;fontSize=14;fontColor=#000000;strokeColor=#000000;strokeWidth=1;align=left;" vertex="1" parent="51">
                    <mxGeometry width="150" height="21" as="geometry">
                        <mxRectangle width="150" height="21" as="alternateBounds"/>
                    </mxGeometry>
                </mxCell>
            </root>
        </mxGraphModel>
    </diagram>
</mxfile>
